<?xml version="1.0" encoding="utf-8"?>
<svg
   xmlns="http://www.w3.org/2000/svg"
   height="134.89999"
   width="580.09998"
   xml:space="preserve"
   viewBox="0 0 580.09998 134.89999"
   y="0px"
   x="0px"
   version="1.1">

<style type="text/css">
	.st0{fill:#7D868C;}
	.st1{fill:#FF6C0C;}
</style>

<g transform="translate(-349,-282)">
	<path
      d="m 478.1,324.3 h 6.6 l 0.4,8.1 c 1.6,-2.9 3.9,-5.1 6.7,-6.7 2.8,-1.6 5.9,-2.4 9.3,-2.4 3,0.1 5.7,0.7 8.2,1.7 2.5,1 4.6,2.5 6.4,4.4 1.8,1.9 3.2,4.2 4.2,6.8 1,2.7 1.5,5.7 1.5,9 0,3.3 -0.5,6.3 -1.5,9 -1,2.7 -2.4,5 -4.2,6.9 -1.8,1.9 -3.9,3.4 -6.5,4.4 -2.5,1 -5.4,1.5 -8.5,1.5 -3,0 -5.9,-0.7 -8.9,-2.1 -2.9,-1.4 -5.2,-3.5 -7,-6.4 v 27.3 H 478 v -61.5 z m 22.2,36.3 c 4.2,0 7.6,-1.3 10.2,-4 2.6,-2.7 3.9,-6.4 3.9,-11.2 0,-5 -1.3,-8.8 -3.9,-11.4 -2.6,-2.6 -6,-3.9 -10.2,-3.9 -2.2,0 -4.2,0.4 -6,1.2 -1.8,0.8 -3.3,1.9 -4.6,3.2 -1.3,1.4 -2.3,3 -3,4.8 -0.7,1.9 -1.1,3.9 -1.1,6 0,2.1 0.4,4.2 1.1,6 0.7,1.9 1.7,3.5 3,4.8 1.3,1.3 2.8,2.4 4.6,3.2 1.9,0.9 3.9,1.3 6,1.3 z"
      class="st0" />

	<path
      d="m 538.7,366.1 h -6.9 v -59.3 h 6.9 z"
      class="st0" />

	<path
      d="m 586.4,366.1 -0.2,-7.4 c -0.8,1.4 -1.9,2.6 -3,3.7 -1.2,1 -2.4,1.9 -3.8,2.6 -1.4,0.7 -2.8,1.2 -4.3,1.6 -1.5,0.4 -3,0.5 -4.4,0.5 -3,0 -5.8,-0.5 -8.4,-1.5 -2.6,-1 -4.9,-2.5 -6.8,-4.4 -1.9,-1.9 -3.4,-4.2 -4.5,-6.9 -1.1,-2.7 -1.7,-5.8 -1.7,-9.2 0,-3.6 0.6,-6.7 1.7,-9.4 1.1,-2.7 2.7,-5 4.6,-6.8 1.9,-1.8 4.2,-3.2 6.8,-4.2 2.6,-1 5.4,-1.4 8.4,-1.4 3.3,0 6.3,0.7 9,2 2.7,1.4 4.8,3.5 6.5,6.5 l 0.1,-7.6 h 6.8 v 41.9 z m -15.2,-36.2 c -2.1,0 -4.1,0.4 -5.9,1.1 -1.8,0.7 -3.4,1.7 -4.8,3 -1.4,1.3 -2.4,2.9 -3.2,4.9 -0.8,1.9 -1.2,4.1 -1.2,6.6 0,2.3 0.4,4.4 1.2,6.3 0.8,1.9 1.9,3.5 3.2,4.8 1.4,1.3 3,2.4 4.8,3.1 1.8,0.7 3.8,1.1 5.9,1.1 3.4,0 6.2,-0.8 8.5,-2.3 2.3,-1.5 4,-3.4 5.1,-5.7 1.1,-2.3 1.7,-4.8 1.7,-7.5 0,-2.7 -0.6,-5.2 -1.7,-7.5 -1.1,-2.3 -2.8,-4.2 -5.1,-5.7 -2.3,-1.4 -5.1,-2.2 -8.5,-2.2 z"
      class="st0" />

	<path
      d="m 640.8,360.7 c -2.2,2.3 -4.6,3.9 -7.2,4.9 -2.6,1 -5.4,1.5 -8.3,1.5 -3,0 -5.8,-0.5 -8.5,-1.5 -2.7,-1 -5,-2.4 -7,-4.3 -2,-1.9 -3.5,-4.2 -4.7,-6.9 -1.2,-2.7 -1.7,-5.8 -1.7,-9.3 0,-3.4 0.6,-6.5 1.7,-9.2 1.1,-2.7 2.7,-5 4.7,-6.9 2,-1.9 4.3,-3.3 7,-4.3 2.7,-1 5.5,-1.5 8.6,-1.5 2.9,0 5.6,0.5 8.1,1.5 2.5,1 4.9,2.6 7.1,4.7 l -4.5,4.6 c -1.5,-1.5 -3.1,-2.5 -5,-3.2 -1.8,-0.7 -3.7,-1 -5.6,-1 -2.1,0 -4.1,0.4 -5.9,1.1 -1.8,0.7 -3.4,1.7 -4.8,3 -1.4,1.3 -2.4,2.9 -3.2,4.8 -0.8,1.9 -1.2,4 -1.2,6.4 0,2.5 0.4,4.7 1.2,6.6 0.8,1.9 1.9,3.5 3.3,4.8 1.4,1.3 3,2.3 4.8,3 1.8,0.7 3.7,1 5.8,1 2,0 3.9,-0.4 5.8,-1.1 1.9,-0.7 3.6,-1.8 5.1,-3.3 z"
      class="st0" />

	<path
      d="m 686.4,359.7 c -2.2,2.5 -5,4.4 -8.3,5.6 -3.3,1.2 -6.6,1.8 -9.9,1.8 -3.2,0 -6.2,-0.5 -8.9,-1.5 -2.7,-1 -5,-2.5 -7,-4.4 -1.9,-1.9 -3.5,-4.3 -4.5,-7 -1.1,-2.7 -1.6,-5.8 -1.6,-9.2 0,-3.2 0.5,-6.1 1.6,-8.7 1.1,-2.7 2.6,-4.9 4.5,-6.9 1.9,-1.9 4.2,-3.4 6.9,-4.5 2.7,-1.1 5.6,-1.6 8.7,-1.6 3.2,0 6.2,0.5 8.9,1.4 2.7,1 5,2.4 7,4.5 1.9,2 3.3,4.5 4.3,7.6 1,3.1 1.2,6.6 0.8,10.8 h -35.7 c 0.2,2 0.7,3.9 1.6,5.5 0.9,1.6 2,3 3.3,4.2 1.4,1.2 2.9,2 4.7,2.6 1.8,0.6 3.7,0.9 5.6,0.9 1.2,0 2.4,-0.1 3.7,-0.3 1.3,-0.2 2.5,-0.6 3.7,-1 1.2,-0.4 2.3,-1 3.3,-1.6 1,-0.6 1.9,-1.4 2.6,-2.2 z m -4.2,-17.9 c -0.1,-4.1 -1.5,-7.1 -4,-9.2 -2.6,-2 -5.9,-3.1 -10,-3.1 -1.8,0 -3.5,0.3 -5.2,0.8 -1.7,0.5 -3.2,1.3 -4.5,2.3 -1.3,1 -2.4,2.3 -3.3,3.8 -0.9,1.5 -1.5,3.3 -1.9,5.3 h 28.9 z"
   class="st0" />

	<path
      d="M 710.1,324.1 H 723 v 5.9 h -13 v 22.9 c 0,2.5 0.5,4.5 1.4,5.9 0.9,1.4 2.7,2.2 5.2,2.2 1,0 1.9,-0.2 2.9,-0.5 1,-0.3 1.9,-0.7 2.9,-1.1 l 2,5.8 c -2.7,1.3 -5.4,2 -8.1,2 -4.6,0.1 -7.9,-1.1 -10,-3.6 -2.1,-2.5 -3.2,-6.1 -3.2,-10.6 v -23 h -8.4 v -5.9 h 8.4 v -11.3 l 7,-0.8 z"
   class="st1" />

	<path
      d="m 729.2,345.2 c 0,-3.2 0.6,-6.2 1.7,-8.9 1.1,-2.7 2.6,-5 4.5,-7 1.9,-1.9 4.2,-3.4 6.9,-4.5 2.7,-1.1 5.5,-1.6 8.6,-1.6 3.2,0 6.1,0.5 8.8,1.6 2.7,1.1 5,2.6 7,4.5 1.9,1.9 3.5,4.2 4.5,7 1.1,2.7 1.6,5.7 1.6,8.9 0,3.2 -0.6,6.2 -1.7,8.9 -1.1,2.7 -2.6,5 -4.6,6.9 -2,1.9 -4.3,3.4 -7,4.5 -2.7,1.1 -5.6,1.6 -8.7,1.6 -3.2,0 -6.1,-0.5 -8.7,-1.6 -2.6,-1.1 -4.9,-2.6 -6.9,-4.5 -2,-1.9 -3.5,-4.2 -4.5,-6.9 -1,-2.7 -1.5,-5.6 -1.5,-8.9 z m 36.6,0 c 0,-2.3 -0.4,-4.4 -1.1,-6.3 -0.8,-1.9 -1.8,-3.5 -3.1,-4.9 -1.3,-1.4 -2.9,-2.4 -4.7,-3.2 -1.8,-0.8 -3.8,-1.1 -5.8,-1.1 -2.1,0 -4.1,0.4 -5.9,1.1 -1.8,0.8 -3.4,1.8 -4.7,3.2 -1.3,1.4 -2.4,3 -3.1,4.9 -0.8,1.9 -1.1,4 -1.1,6.3 0,2.3 0.4,4.3 1.1,6.2 0.8,1.9 1.8,3.5 3.1,4.9 1.3,1.4 2.9,2.4 4.7,3.1 1.8,0.7 3.8,1.1 5.9,1.1 2.1,0 4.1,-0.4 6,-1.1 1.8,-0.7 3.4,-1.8 4.7,-3.1 1.3,-1.4 2.4,-3 3.1,-4.9 0.5,-1.8 0.9,-3.9 0.9,-6.2 z"
   class="st1" />

	<path
      d="m 783.6,324.3 h 6.6 l 0.4,8.1 c 1.6,-2.9 3.9,-5.1 6.7,-6.7 2.8,-1.6 5.9,-2.4 9.3,-2.4 3,0.1 5.7,0.7 8.2,1.7 2.5,1 4.6,2.5 6.4,4.4 1.8,1.9 3.2,4.2 4.2,6.8 1,2.7 1.5,5.7 1.5,9 0,3.3 -0.5,6.3 -1.5,9 -1,2.7 -2.4,5 -4.2,6.9 -1.8,1.9 -3.9,3.4 -6.5,4.4 -2.5,1 -5.4,1.5 -8.5,1.5 -3,0 -5.9,-0.7 -8.9,-2.1 -2.9,-1.4 -5.2,-3.5 -7,-6.4 v 27.3 h -6.8 v -61.5 z m 22.2,36.3 c 4.2,0 7.6,-1.3 10.2,-4 2.6,-2.7 3.9,-6.4 3.9,-11.2 0,-5 -1.3,-8.8 -3.9,-11.4 -2.6,-2.6 -6,-3.9 -10.2,-3.9 -2.2,0 -4.2,0.4 -6,1.2 -1.8,0.8 -3.3,1.9 -4.6,3.2 -1.3,1.4 -2.3,3 -3,4.8 -0.7,1.9 -1.1,3.9 -1.1,6 0,2.1 0.4,4.2 1.1,6 0.7,1.9 1.7,3.5 3,4.8 1.3,1.3 2.8,2.4 4.6,3.2 1.9,0.9 3.8,1.3 6,1.3 z"
   class="st0" />

	<path
      d="m 871.2,366.1 -0.2,-7.4 c -0.8,1.4 -1.9,2.6 -3,3.7 -1.2,1 -2.4,1.9 -3.8,2.6 -1.4,0.7 -2.8,1.2 -4.3,1.6 -1.5,0.4 -3,0.5 -4.4,0.5 -3,0 -5.8,-0.5 -8.4,-1.5 -2.6,-1 -4.9,-2.5 -6.8,-4.4 -1.9,-1.9 -3.4,-4.2 -4.5,-6.9 -1.1,-2.7 -1.7,-5.8 -1.7,-9.2 0,-3.6 0.6,-6.7 1.7,-9.4 1.1,-2.7 2.7,-5 4.6,-6.8 1.9,-1.8 4.2,-3.2 6.8,-4.2 2.6,-1 5.4,-1.4 8.4,-1.4 3.3,0 6.3,0.7 9,2 2.7,1.4 4.8,3.5 6.5,6.5 l 0.1,-7.6 h 6.8 v 41.9 z M 856,329.9 c -2.1,0 -4.1,0.4 -5.9,1.1 -1.8,0.7 -3.4,1.7 -4.8,3 -1.4,1.3 -2.4,2.9 -3.2,4.9 -0.8,1.9 -1.2,4.1 -1.2,6.6 0,2.3 0.4,4.4 1.2,6.3 0.8,1.9 1.9,3.5 3.2,4.8 1.4,1.3 3,2.4 4.8,3.1 1.8,0.7 3.8,1.1 5.9,1.1 3.4,0 6.2,-0.8 8.5,-2.3 2.3,-1.5 4,-3.4 5.1,-5.7 1.1,-2.3 1.7,-4.8 1.7,-7.5 0,-2.7 -0.6,-5.2 -1.7,-7.5 -1.1,-2.3 -2.8,-4.2 -5.1,-5.7 -2.3,-1.4 -5.1,-2.2 -8.5,-2.2 z"
   class="st0" />

	<path
      d="m 902.8,385.9 h -7.6 l 8.8,-20.4 -17,-41.3 h 8 l 8.2,21.7 4.7,12 4.4,-12 9.2,-21.8 h 7.6 z"
   class="st0" />

</g>

<path
   d="m 3.9,134.9 c -0.7,0 -1.4,-0.2 -1.9,-0.5 -1.2,-0.7 -2,-2.1 -2,-3.6 V 99.1 C 0,97.6 0.8,96.3 2,95.5 L 49.5,67.4 7.9,42.8 v 30.3 c 0,2.3 -1.8,4.1 -3.9,4.1 -2.2,0 -3.9,-1.8 -3.9,-4.1 V 35.7 c 0,-1.5 0.8,-2.8 2,-3.6 0.6,-0.4 1.3,-0.5 2,-0.5 0.7,0 1.4,0.2 2,0.5 l 53.5,31.7 c 1.2,0.7 2,2.1 2,3.6 0,1.5 -0.8,2.8 -2,3.6 L 8.1,101.5 v 22.2 L 87.4,76.8 c 3.3,-2 5.3,-5.5 5.3,-9.4 0,-3.9 -2,-7.4 -5.3,-9.4 L 2.2,7.6 C 0.3,6.5 -0.4,3.9 0.7,2 1.4,0.7 2.7,0 4.1,0 4.8,0 5.5,0.2 6,0.5 L 91,51 c 5.8,3.4 9.3,9.6 9.3,16.5 0,6.9 -3.5,13.1 -9.3,16.5 L 5.8,134.4 c -0.6,0.3 -1.2,0.5 -1.9,0.5 z"
   class="st1" />

</svg>
